<?xml version="1.0" encoding="UTF-8"?>
<svg id="Calque_1" data-name="Calque 1" xmlns="http://www.w3.org/2000/svg" viewBox="0 0 1330.65 518.32">
  <defs>
    <style>
      .cls-1, .cls-2 {
        fill: #56bcb7;
      }

      .cls-3 {
        fill: #010101;
      }

      .cls-2 {
        isolation: isolate;
        opacity: .6;
      }

      .cls-4 {
        fill: #fdd44e;
      }

      .cls-5 {
        fill: #ed6c6e;
      }
    </style>
  </defs>
  <path class="cls-3" d="M158.06,139.87c147.49,15.43,185.19,159.8,55.17,230.99l80.83,142.25-103.01-3.5c-14.39-8.71-53.18-112.58-69.87-128.06-9.25-8.58-13.07-8.87-25.61-7.44v139.08H0V138.32c48.56-.26,111.66-3.3,158.06,1.55ZM189.39,229.45c-15.97-15.96-71.01-6.62-93.86-9.09v87.91c33.51-1.26,95.46,12.24,103.06-33.36,1.92-11.52-1.05-37.32-9.19-45.46h-.01Z"/>
  <rect class="cls-3" x="646.94" y="125.23" width="95.57" height="387.96"/>
  <rect class="cls-3" x="779.27" y="125.23" width="95.57" height="387.96"/>
  <rect class="cls-3" x="904.25" y="220.39" width="95.57" height="292.8"/>
  <path class="cls-4" d="M952.46,84.15c66.01-3.49,72.05,94.88,5.07,98.17-72.84,3.58-80.93-94.15-5.07-98.17Z"/>
  <path class="cls-5" d="M1242.39,219.5l-.04,36.64c-99.15-95.26-223.69-15.87-221,113.55,2.56,123.2,126.27,195.59,221,106.05l.04,36.64,88.26-.04V219.54l-88.26-.04h0ZM1228.93,361.94c-1.21,2.71-24.88,25.79-32.97,33.91-3.55,3.57-8.83,5.24-15.03,4.45-2.64-.34-5.66-1.11-9.02-2.57-11.4-4.97-21.53-5.74-24.31-5.86-.43-.02-.81.3-.88.73h0c-.06.36-.33.65-.69.72-.51.1-1.25.19-1.77.05-.83-.22-4.63,3.18-4.97,3.49-.02.01-.03.03-.05.04l-19.2,20.12c-.17.18-.25.42-.24.66.07,1.19.11,4.73-1.79,4.34-2.29-.47-2.92-.38-5.46-2.89-1.81-1.79-2.32-2.3-2.47-2.45l-.06-.06c-.15-.15-.68-.68-2.49-2.47-2.44-2.42-2.36-3.06-2.83-5.32-.4-1.89,3.01-2.01,4.16-2,.24,0,.47-.09.63-.27l19.22-20.15s3.56-4.29,3.33-5.15c-.14-.52-.06-1.27.03-1.79.06-.35.32-.62.66-.7h.03c.41-.1.7-.48.68-.9-.14-2.76-.97-12.86-5.88-24.04-1.44-3.28-2.21-6.26-2.56-8.89-.82-6.16.74-11.51,4.14-15.23,7.74-8.46,29.75-33.19,32.34-34.53,3.11-1.6,11.34-.61,15.82.74,6.95,2.1,23.27,18,27,21.69l.02.02.03.03c.23.23.52.51.84.84l.02.02c.16.16.32.32.5.5.02.02.03.03.05.05.17.17.35.35.54.54.03.03.05.05.08.08.19.19.38.39.58.59.02.02.04.04.06.07.2.2.4.41.62.63.02.02.03.03.05.05.21.22.43.44.65.67.04.04.08.09.13.13.22.22.44.45.66.68.05.05.1.11.16.16.23.24.46.48.7.73.04.04.08.09.13.13.24.25.49.51.74.78.02.02.04.05.06.07.25.26.5.53.76.8.04.05.09.09.13.14.25.27.51.54.76.81.06.06.12.12.17.19.26.27.51.55.77.83.05.06.11.12.16.18.27.29.54.58.8.88.03.04.06.07.1.11.26.28.52.57.78.86.04.04.08.09.12.13.27.29.53.59.8.89.06.06.12.13.17.2.26.29.52.59.78.88.06.06.11.13.17.19.26.3.53.6.79.91.04.05.08.1.13.15.26.3.52.6.78.91.02.03.04.05.06.07l.78.93c.05.06.1.12.14.17.25.3.49.59.73.89l.16.19c.24.3.48.59.71.89.04.05.08.1.12.16.24.31.48.61.72.92.01.02.03.04.04.06.23.3.45.59.67.88.03.04.06.08.09.12.21.29.42.57.62.85.04.05.08.11.12.16.2.28.39.55.57.82.03.05.07.1.1.15.19.27.37.55.54.81l.06.09c.17.27.33.53.49.78.01.02.03.04.04.06.16.26.3.51.44.76.02.04.05.08.07.12.13.24.25.47.37.7.02.04.04.08.06.12.11.23.21.45.31.66.01.03.02.06.04.09.09.22.18.44.25.65,1.57,4.64,2.95,13.17,1.51,16.41h.03,0Z"/>
  <path class="cls-4" d="M896.69,75.81c-122.55-23.22-423.79-100.94-495.43,35.17-5.41,10.32-9.48,21.59-12.64,33.34-.51-12.16.78-24.55,4.06-36.67,2.45-9.12,6.13-18.12,10.91-26.35,24.48-42.56,72.77-64.3,119.07-73.92,120.36-23.88,266.4,13.17,374.03,68.43h0Z"/>
  <path class="cls-4" d="M879.5,106.27c-108.85-13.18-276-49.62-367.63,22.94-3.42,2.69-6.75,5.52-9.96,8.48-6.45,5.97-12.52,12.55-18.42,19.56,5.32-17.54,15.24-33.96,28.19-47.91,87.11-90.91,268.46-58.25,367.83-3.07h0Z"/>
  <g>
    <path class="cls-1" d="M523.83,226.37l-.04,36.12c-97.84-93.92-220.75-15.65-218.09,111.95,2.53,121.46,124.61,192.82,218.09,104.55l.04,36.12,87.1-.04V226.42l-87.1-.04h0ZM554.95,429.14v.15c0,.07-.03.15-.05.23-.01.05-.02.1-.04.15-.03.09-.08.2-.12.3-.02.05-.04.09-.06.14-.08.16-.17.33-.28.52-.89,1.52-6.48,9.3-8.04,10.81-.1.1-.19.17-.26.21-1.96,1.21-2.85-.93-3.98-1.78-13.78-10.31-27.58-20.65-41.68-30.58-1.52-1.07-2.81-.67-3.52-3.09-.23-.78.07-1.66.02-1.79-.65-1.71-13.26-6.33-15.73-7.01-6.82-1.88-13.72-1.1-20.81-1.52-10.77-.63-21.57-1.43-32.29-2.15-38.32-2.58-85.56-47.65-47.94-87.8.4-.42.79-.83,1.19-1.23,25.24-25.27,61.26-10.1,79.5,11.27,10.02,11.74,16.11,28.48,22.19,42.99,4.42,10.55,6.07,19.05,13.57,28,1.01,1.21,6.53,7.49,7.49,7.53.17,0,.79-.55,1.42-.59,2.47-.17,2.29.9,3.73,1.95,2.37,1.73,4.75,3.46,7.12,5.2-.22.08-.42.23-.57.43l-5.75,7.81c-.41.56-.29,1.34.27,1.75s1.35.29,1.76-.27l5.75-7.81c.15-.21.23-.45.24-.68,1.86,1.36,3.71,2.71,5.57,4.06.74.54,1.48,1.08,2.23,1.62.2.14.39.28.59.42l-5.74,7.79c-.41.56-.29,1.34.27,1.75s1.35.29,1.76-.27l5.75-7.81c.98.71,1.96,1.41,2.95,2.12.85.6,1.7,1.2,2.54,1.8,1.02.72,2.03,1.44,3.06,2.16l-5.75,7.81c-.41.56-.29,1.34.27,1.75s1.35.29,1.76-.27l5.75-7.81s.02-.04.04-.07c.18.12.36.25.54.37,1.01.7,2.03,1.41,3.05,2.1.86.59,1.74,1.16,2.6,1.74.33.22.67.45,1,.67l-5.69,7.72c-.41.56-.29,1.34.27,1.75s1.35.29,1.76-.27l5.75-7.81c.89.58,1.78,1.15,2.67,1.72,1.05.68,2.09,1.36,3.14,2.03.03.05.05.08.08.13h0s.05.08.08.13c.05.08.11.16.15.24.04.07.08.14.12.21.04.06.07.13.1.19s.06.13.09.19c.02.05.05.11.07.16.02.06.03.12.05.19.01.05.03.1.03.15v.2h-.04,0Z"/>
    <polygon class="cls-2" points="385.29 338.02 393.7 343.96 399.45 336.16 391.05 330.22 385.29 338.02"/>
    <polygon class="cls-2" points="392.73 327.94 401.13 333.89 406.65 326.41 398.25 320.47 392.73 327.94"/>
    <polygon class="cls-2" points="396.7 360.94 402.46 353.13 394.36 347.4 388.6 355.2 396.7 360.94"/>
    <polygon class="cls-2" points="410.43 325.62 418.54 331.35 424.3 323.55 416.19 317.82 410.43 325.62"/>
    <polygon class="cls-2" points="399.93 318.19 408.33 324.13 414.09 316.33 405.69 310.39 399.93 318.19"/>
    <polygon class="cls-2" points="447.77 355.49 439.67 349.76 434.15 357.24 442.25 362.97 447.77 355.49"/>
    <polygon class="cls-2" points="412.97 360.56 404.56 354.62 398.8 362.42 407.21 368.36 412.97 360.56"/>
    <polygon class="cls-2" points="417.63 315.87 425.74 321.6 431.49 313.8 423.39 308.07 417.63 315.87"/>
    <path class="cls-2" d="M461.34,365.58l-11.41-8.07-5.04,6.83,11.41,8.07c2.06-2.08,3.52-4.36,5.04-6.83Z"/>
    <polygon class="cls-2" points="423.17 367.78 415.07 362.05 409.31 369.85 417.41 375.58 423.17 367.78"/>
    <polygon class="cls-2" points="430.37 358.03 422.27 352.3 416.51 360.1 424.61 365.83 430.37 358.03"/>
    <polygon class="cls-2" points="440.57 365.24 432.47 359.51 426.71 367.32 434.82 373.05 440.57 365.24"/>
    <polygon class="cls-2" points="427.84 323.09 436.24 329.03 442 321.23 433.6 315.28 427.84 323.09"/>
    <polygon class="cls-2" points="427.36 341.06 418.96 335.11 413.44 342.59 421.84 348.53 427.36 341.06"/>
    <polygon class="cls-2" points="420.16 350.81 411.76 344.87 406 352.67 414.41 358.61 420.16 350.81"/>
    <polygon class="cls-2" points="395.8 345.45 403.9 351.18 409.66 343.38 401.56 337.65 395.8 345.45"/>
    <path class="cls-2" d="M465.6,349.29c.04-2.24.02-4.48-.32-6.67-.07-.44-.81-4.4-1.19-4.29l-4.8,6.5,6.3,4.46h0Z"/>
    <polygon class="cls-2" points="416.86 333.63 408.75 327.9 403.24 335.37 411.34 341.1 416.86 333.63"/>
    <polygon class="cls-2" points="444.1 322.71 438.34 330.51 446.45 336.25 452.2 328.44 444.1 322.71"/>
    <path class="cls-2" d="M465.48,353.17l-8.1-5.73-5.28,7.15,10.81,7.64c1.33-2.92,1.91-6.02,2.58-9.06h-.01Z"/>
    <polygon class="cls-2" points="437.57 348.27 429.46 342.54 423.95 350.02 432.05 355.75 437.57 348.27"/>
    <polygon class="cls-2" points="445.01 338.2 436.9 332.47 431.14 340.27 439.25 346 445.01 338.2"/>
    <polygon class="cls-2" points="434.8 330.98 426.4 325.04 420.64 332.84 429.04 338.78 434.8 330.98"/>
    <polygon class="cls-2" points="455.21 345.41 447.11 339.68 441.35 347.49 449.45 353.22 455.21 345.41"/>
    <path class="cls-2" d="M397.42,364.91l-4.56,6.18c2.45,2.11,4.89,4.05,7.8,5.52l4.56-6.18-7.8-5.52Z"/>
    <polygon class="cls-2" points="448.55 337.73 456.65 343.46 462.41 335.66 454.31 329.93 448.55 337.73"/>
    <polygon class="cls-2" points="392.26 345.92 383.85 339.97 378.09 347.77 386.5 353.72 392.26 345.92"/>
    <path class="cls-2" d="M375.51,334.57c-.66,1.77.27,3.76-.08,5.65l1.28,5.09,4.8-6.5-6-4.25h0Z"/>
    <polygon class="cls-2" points="403.61 378.19 412.31 381.8 415.43 377.65 407.93 372.34 403.61 378.19"/>
    <path class="cls-2" d="M378.82,351.75c-.04,1.03.69,2.31,1.13,3.2.36.73,1.74,3.35,2.26,3.65l2.32-2.82-5.7-4.03h-.01Z"/>
    <path class="cls-2" d="M430.5,383.85c3.66-.16,7.84-.92,11.34-2.37l-6.3-4.46-5.04,6.83h0Z"/>
    <path class="cls-2" d="M442.74,367.27l-5.28,7.15,7.95,5.63c2.89-1.01,5.84-2.95,8.13-5.14l-10.81-7.64h.01Z"/>
    <path class="cls-2" d="M415.74,382.81c1.74.27,3.47.77,5.22.99.9.11,2.31.37,3.18,0l-6-4.25-2.4,3.25h0Z"/>
    <polygon class="cls-2" points="425.27 369.27 419.51 377.07 427.62 382.8 433.38 375 425.27 369.27"/>
    <polygon class="cls-2" points="387.22 357.69 384.15 361.91 390.4 368.85 394.72 363 387.22 357.69"/>
    <path class="cls-2" d="M436.95,305.78c-2.58-1.76-5.75-2.58-8.7-3.61l-2.89,3.83,7.5,5.31,4.08-5.53h.01Z"/>
    <path class="cls-2" d="M388.71,329.06l-10.51-7.43c-1.32,2.8-2.55,6.17-2.43,9.17l7.65,5.41,5.28-7.15h.01Z"/>
    <path class="cls-2" d="M453.58,325.96c.54-1.03,2.96-3.33,2.71-4.28-.19-.72-5.62-6.66-6.14-6.55l-4.08,5.53,7.5,5.31h.01Z"/>
    <polygon class="cls-2" points="461.99 331.9 458.6 325.05 456.29 327.87 461.99 331.9"/>
    <polygon class="cls-2" points="424.83 301.16 417.27 300.27 422.67 304.09 424.83 301.16"/>
    <path class="cls-2" d="M443.38,318.74l4.2-5.69-.09-.81-6.6-4.67c-.1-.07-.77.11-.99-.21l-4.32,5.85,7.8,5.52h0Z"/>
    <polygon class="cls-2" points="415.53 314.38 421.29 306.58 412.89 300.64 407.13 308.44 415.53 314.38"/>
    <path class="cls-2" d="M403.35,309.23l-7.65-5.41c-2.97,1.17-5.66,3.05-8.13,5.14l10.51,7.43,5.28-7.15h-.01Z"/>
    <path class="cls-2" d="M395.91,319.31l-11.11-7.85c-2,2.2-3.7,4.16-5.04,6.83l11.11,7.85,5.04-6.83Z"/>
    <path class="cls-2" d="M410.06,300.13c-3.65.19-7.28.95-10.8,2.26l6,4.25,4.8-6.5h0Z"/>
    <path class="cls-1" d="M473.85,354.36c-.76-1.66-3.27-.93-3.59,1.06-.75,4.66-2.55,10.73-6.76,16.89-4.2,6.16-9.21,10.05-13.27,12.45-1.73,1.02-1.51,3.62.32,3.73,12.12.69,24.25,1.37,36.37,2.06,1.51.09,2.75-1.72,2.12-3.1-5.06-11.03-10.13-22.05-15.19-33.08h0Z"/>
  </g>
</svg>